<svg width="32" height="32" viewBox="0 0 32 32" xmlns="http://www.w3.org/2000/svg">
  <defs>
    <linearGradient id="aiGradient" x1="0%" y1="0%" x2="100%" y2="100%">
      <stop offset="0%" style="stop-color:#4FC3F7;stop-opacity:1" />
      <stop offset="50%" style="stop-color:#42A5F5;stop-opacity:1" />
      <stop offset="100%" style="stop-color:#1E88E5;stop-opacity:1" />
    </linearGradient>
    <linearGradient id="vueGradient" x1="0%" y1="0%" x2="100%" y2="100%">
      <stop offset="0%" style="stop-color:#41B883;stop-opacity:1" />
      <stop offset="100%" style="stop-color:#35495E;stop-opacity:1" />
    </linearGradient>
  </defs>
  
  <!-- Background circle -->
  <circle cx="16" cy="16" r="15" fill="url(#aiGradient)" stroke="#1565C0" stroke-width="1"/>
  
  <!-- Vue.js inspired V shape -->
  <path d="M8 12 L16 24 L24 12 L20 12 L16 18 L12 12 Z" fill="url(#vueGradient)" opacity="0.9"/>
  
  <!-- AI circuit pattern -->
  <g fill="white" opacity="0.7">
    <!-- Central node -->
    <circle cx="16" cy="8" r="1.5"/>
    
    <!-- Connected nodes -->
    <circle cx="10" cy="6" r="1"/>
    <circle cx="22" cy="6" r="1"/>
    <circle cx="26" cy="10" r="1"/>
    <circle cx="6" cy="10" r="1"/>
    
    <!-- Connection lines -->
    <line x1="16" y1="8" x2="10" y2="6" stroke="white" stroke-width="0.5" opacity="0.6"/>
    <line x1="16" y1="8" x2="22" y2="6" stroke="white" stroke-width="0.5" opacity="0.6"/>
    <line x1="22" y1="6" x2="26" y2="10" stroke="white" stroke-width="0.5" opacity="0.6"/>
    <line x1="10" y1="6" x2="6" y2="10" stroke="white" stroke-width="0.5" opacity="0.6"/>
  </g>
  
  <!-- Small accent dots for tech feel -->
  <circle cx="28" cy="16" r="0.8" fill="white" opacity="0.5"/>
  <circle cx="4" cy="16" r="0.8" fill="white" opacity="0.5"/>
  <circle cx="16" cy="28" r="0.8" fill="white" opacity="0.5"/>
</svg>